<svg xmlns="http://www.w3.org/2000/svg" viewBox="0 0 900 560" role="img" aria-label="Aliados FitGo">
  <defs>
    <linearGradient id="bg" x1="80" x2="820" y1="500" y2="70" gradientUnits="userSpaceOnUse">
      <stop stop-color="#e2f6ea"/>
      <stop offset=".52" stop-color="#f8fffb"/>
      <stop offset="1" stop-color="#fff2e4"/>
    </linearGradient>
    <linearGradient id="awning" x1="226" x2="682" y1="168" y2="168" gradientUnits="userSpaceOnUse">
      <stop stop-color="#0d4f49"/>
      <stop offset=".5" stop-color="#25c878"/>
      <stop offset="1" stop-color="#ff8a1e"/>
    </linearGradient>
  </defs>
  <rect width="900" height="560" rx="42" fill="url(#bg)"/>
  <ellipse cx="454" cy="478" rx="300" ry="36" fill="#0d4f49" opacity=".12"/>
  <rect x="238" y="170" width="428" height="282" rx="34" fill="#fff"/>
  <path d="M274 112h356l58 92H216l58-92z" fill="url(#awning)"/>
  <path d="M216 204h472" stroke="#0d4f49" stroke-width="18" stroke-linecap="round"/>
  <rect x="290" y="250" width="122" height="202" rx="22" fill="#1f8a70"/>
  <rect x="454" y="250" width="154" height="112" rx="24" fill="#e9f8ef"/>
  <path d="M486 306h90" stroke="#0d4f49" stroke-width="18" stroke-linecap="round"/>
  <path d="M351 346h1" stroke="#fff" stroke-width="20" stroke-linecap="round"/>
  <circle cx="652" cy="388" r="50" fill="#25c878"/>
  <path d="M629 389l18 18 36-46" stroke="#fff" stroke-width="18" stroke-linecap="round" stroke-linejoin="round"/>
  <circle cx="236" cy="320" r="38" fill="#ff8a1e"/>
  <circle cx="708" cy="142" r="30" fill="#25c878"/>
</svg>
